<?xml version="1.0" encoding="utf-8"?>
<!-- Generator: Adobe Illustrator 16.0.4, SVG Export Plug-In . SVG Version: 6.00 Build 0)  -->
<!DOCTYPE svg PUBLIC "-//W3C//DTD SVG 1.1//EN" "http://www.w3.org/Graphics/SVG/1.1/DTD/svg11.dtd">
<svg version="1.1" id="Layer_1" xmlns="http://www.w3.org/2000/svg" xmlns:xlink="http://www.w3.org/1999/xlink" x="0px" y="0px"
	 width="288px" height="288px" viewBox="5.25 -17.75 288 288" enable-background="new 5.25 -17.75 288 288" xml:space="preserve">
<title>sketch shape</title>
<desc>Created with Sketch.</desc>
<g id="Page-1">
	<g id="Desktop-HD-Copy-12" transform="translate(-328.000000, -565.000000)">
		<g id="sketch-shape" transform="translate(328.000000, 565.000000)">
			<path id="Shape" fill="#CECECE" d="M34.829,131.807c0-3.841,0.728-7.418,2.192-10.727c1.46-3.307,3.459-6.229,5.998-8.767
				c2.539-2.538,5.459-4.535,8.769-5.998c3.307-1.459,6.883-2.192,10.729-2.192c3.842,0,7.42,0.732,10.73,2.192
				c3.305,1.465,6.23,3.461,8.768,5.998c2.539,2.538,4.536,5.46,5.999,8.767c1.46,3.309,2.192,6.886,2.192,10.727v18.455
				c0,3.848-0.732,7.423-2.192,10.729c-1.465,3.309-3.46,6.228-5.999,8.765c-2.538,2.539-5.462,4.539-8.768,6.002
				c-3.31,1.462-6.888,2.188-10.73,2.188h-8.019c0,0-11.3,7.137-11.182,7.292c0.118,0.156,11.096,11.165,11.096,11.165h8.105
				c6.305,0,12.263-1.228,17.881-3.69c5.614-2.461,10.497-5.769,14.65-9.919c4.154-4.155,7.459-9.032,9.923-14.65
				c2.459-5.61,3.691-11.568,3.691-17.877V131.81c0-6.304-1.232-12.26-3.691-17.877c-2.462-5.613-5.769-10.498-9.923-14.648
				c-4.153-4.153-9.036-7.458-14.65-9.92c-5.619-2.458-11.579-3.691-17.881-3.691c-6.309,0-12.269,1.233-17.883,3.691
				c-5.616,2.463-10.5,5.768-14.651,9.92c-4.154,4.152-7.463,9.035-9.922,14.648c-2.461,5.617-3.691,11.573-3.691,17.877v73.82
				c0,6.309,1.23,12.266,3.691,17.877c2.459,5.617,5.769,10.498,9.922,14.649c4.153,4.153,9.035,7.461,14.651,9.918
				c5.614,2.461,11.574,3.694,17.883,3.694c0,0,14.488-0.059,29.742-0.12c16.958-0.07,53.09,0.12,53.09,0.12l0.229-193.779
				c0-3.843,0.728-7.419,2.193-10.728c1.46-3.307,3.46-6.229,5.999-8.766c2.538-2.538,5.456-4.535,8.768-5.998
				c3.306-1.46,6.883-2.192,10.729-2.192c3.842,0,7.42,0.729,10.73,2.192c3.304,1.463,6.227,3.46,8.766,5.998
				c2.538,2.538,4.534,5.459,5.999,8.766c1.462,3.309,2.191,6.884,2.191,10.728v161.885c0,0.52-10.502,1.503-11.101,1.503
				l11.101,11.126h18.46V57.988c0-3.844,0.727-7.419,2.191-10.728c1.46-3.307,3.46-6.229,5.999-8.767
				c2.538-2.538,5.456-4.535,8.766-5.997c3.308-1.46,6.884-2.192,10.73-2.192c3.844,0,7.42,0.73,10.729,2.192
				c3.304,1.462,6.228,3.459,8.769,5.997c2.536,2.539,4.534,5.46,5.997,8.767c1.461,3.309,2.193,6.884,2.193,10.728v179.397
				c0,1.09-9.844,3.261-11.104,3.261l11.104,11.121h18.461V57.988c0-6.304-1.232-12.262-3.694-17.877
				c-2.46-5.614-5.769-10.496-9.922-14.648s-9.037-7.458-14.647-9.92c-5.62-2.459-11.579-3.691-17.884-3.691
				c-7.538,0-14.538,1.693-20.995,5.073c-6.463,3.386-11.768,7.844-15.923,13.381c-4.305-5.538-9.653-9.995-16.036-13.381
				c-6.385-3.38-13.346-5.073-20.881-5.073c-6.309,0-12.27,1.232-17.883,3.691c-5.618,2.462-10.498,5.767-14.651,9.92
				c-4.153,4.153-7.462,9.035-9.921,14.648c-2.463,5.615-3.692,11.573-3.692,17.877v175.076l-64.604,0.245
				c-3.849,0-7.424-0.728-10.73-2.191c-3.309-1.461-6.23-3.46-8.769-5.998c-2.538-2.537-4.54-5.458-5.998-8.767
				c-1.465-3.305-2.192-6.881-2.192-10.728v-27.681L34.829,131.807z"/>
			<path id="Shape_1_" fill="#193755" d="M23.709,120.688c0-3.842,0.728-7.418,2.193-10.728c1.46-3.306,3.459-6.229,5.998-8.767
				s5.459-4.535,8.769-5.997c3.307-1.46,6.883-2.192,10.73-2.192c3.841,0,7.419,0.732,10.729,2.192
				c3.306,1.464,6.23,3.461,8.769,5.997c2.539,2.538,4.536,5.461,5.998,8.767c1.461,3.309,2.193,6.886,2.193,10.728v18.456
				c0,3.845-0.732,7.422-2.193,10.728c-1.464,3.309-3.459,6.228-5.998,8.764c-2.538,2.54-5.461,4.539-8.769,6.002
				c-3.309,1.463-6.888,2.19-10.729,2.19h-8.02l-0.086,18.455h8.106c6.305,0,12.262-1.226,17.88-3.689
				c5.615-2.462,10.498-5.769,14.651-9.92c4.153-4.154,7.458-9.031,9.922-14.649c2.459-5.61,3.691-11.568,3.691-17.878V120.69
				c0-6.305-1.232-12.261-3.691-17.877c-2.46-5.613-5.769-10.498-9.922-14.648c-4.153-4.152-9.037-7.457-14.651-9.92
				c-5.618-2.458-11.577-3.691-17.88-3.691c-6.311,0-12.271,1.232-17.884,3.691c-5.617,2.463-10.5,5.768-14.651,9.92
				c-4.153,4.153-7.463,9.036-9.921,14.648C6.48,108.43,5.25,114.386,5.25,120.69v73.818c0,6.31,1.23,12.268,3.692,17.879
				c2.458,5.617,5.768,10.497,9.921,14.648c4.154,4.154,9.035,7.463,14.651,9.92c5.613,2.46,11.573,3.693,17.884,3.693
				c0,0,14.487-0.059,29.741-0.121c16.958-0.069,53.09,0.121,53.09,0.121l0.229-193.779c0-3.843,0.728-7.418,2.192-10.728
				c1.461-3.306,3.46-6.229,5.998-8.767c2.539-2.538,5.458-4.535,8.769-5.997c3.305-1.46,6.884-2.192,10.729-2.192
				c3.841,0,7.419,0.73,10.729,2.192c3.307,1.462,6.229,3.459,8.767,5.997c2.539,2.538,4.536,5.46,5.998,8.767
				c1.463,3.309,2.193,6.884,2.193,10.728v174.515h18.458V46.868c0-3.844,0.729-7.418,2.193-10.727
				c1.46-3.307,3.459-6.229,5.998-8.767c2.539-2.538,5.457-4.536,8.767-5.997c3.307-1.46,6.883-2.192,10.73-2.192
				c3.844,0,7.419,0.73,10.729,2.192c3.305,1.461,6.228,3.459,8.769,5.997c2.536,2.538,4.534,5.46,5.998,8.767
				c1.46,3.309,2.193,6.883,2.193,10.727v193.778h18.461V46.868c0-6.304-1.233-12.262-3.694-17.877
				c-2.461-5.613-5.769-10.495-9.921-14.648c-4.154-4.153-9.038-7.458-14.649-9.92c-5.619-2.458-11.578-3.691-17.883-3.691
				c-7.538,0-14.538,1.694-20.995,5.074c-6.463,3.386-11.768,7.844-15.924,13.382c-4.305-5.538-9.653-9.996-16.036-13.382
				c-6.384-3.379-13.347-5.074-20.88-5.074c-6.31,0-12.269,1.233-17.883,3.691c-5.618,2.463-10.498,5.768-14.651,9.92
				c-4.154,4.153-7.463,9.035-9.922,14.648C117.229,34.606,116,40.564,116,46.868v175.076l-64.604,0.245
				c-3.848,0-7.424-0.728-10.729-2.192c-3.31-1.461-6.23-3.459-8.769-5.997s-4.541-5.459-5.999-8.768
				c-1.464-3.303-2.193-6.881-2.193-10.727v-27.681L23.709,120.688z"/>
		</g>
	</g>
</g>
</svg>
