<?xml version="1.0" encoding="utf-8"?>
<!-- Generator: Adobe Illustrator 16.0.4, SVG Export Plug-In . SVG Version: 6.00 Build 0)  -->
<!DOCTYPE svg PUBLIC "-//W3C//DTD SVG 1.1//EN" "http://www.w3.org/Graphics/SVG/1.1/DTD/svg11.dtd">
<svg version="1.1" id="Layer_1" xmlns="http://www.w3.org/2000/svg" xmlns:xlink="http://www.w3.org/1999/xlink" x="0px" y="0px"
	 width="288px" height="288px" viewBox="0 0 288 288" enable-background="new 0 0 288 288" xml:space="preserve">
<title>sketch shape</title>
<desc>Created with Sketch.</desc>
<g id="Page-1">
	<g id="Desktop-HD-Copy-12" transform="translate(-328.000000, -565.000000)">
		<g id="sketch-shape" transform="translate(328.000000, 565.000000)">
			<path id="Shape" fill="#CECECE" d="M29.581,149.807c0-3.841,0.728-7.418,2.192-10.727c1.46-3.307,3.459-6.229,5.998-8.767
				c2.539-2.538,5.459-4.535,8.769-5.998c3.307-1.459,6.883-2.192,10.729-2.192c3.842,0,7.42,0.732,10.73,2.192
				c3.305,1.465,6.23,3.461,8.768,5.998c2.539,2.539,4.536,5.46,5.999,8.767c1.46,3.309,2.192,6.886,2.192,10.727v18.455
				c0,3.848-0.732,7.424-2.192,10.729c-1.465,3.309-3.46,6.228-5.999,8.765c-2.538,2.539-5.462,4.539-8.768,6.002
				c-3.31,1.463-6.888,2.188-10.73,2.188H49.25c0,0-11.3,7.139-11.182,7.294c0.118,0.155,11.096,11.163,11.096,11.163h8.105
				c6.305,0,12.263-1.228,17.881-3.688c5.614-2.461,10.497-5.771,14.65-9.919c4.154-4.154,7.459-9.031,9.923-14.648
				c2.459-5.61,3.691-11.568,3.691-17.877v-18.459c0-6.305-1.232-12.261-3.691-17.877c-2.462-5.613-5.769-10.498-9.923-14.648
				c-4.153-4.153-9.036-7.458-14.65-9.92c-5.619-2.458-11.579-3.691-17.881-3.691c-6.309,0-12.269,1.233-17.883,3.691
				c-5.616,2.463-10.5,5.768-14.651,9.92c-4.154,4.152-7.463,9.035-9.922,14.648c-2.461,5.617-3.691,11.573-3.691,17.877v73.819
				c0,6.31,1.23,12.267,3.691,17.877c2.459,5.617,5.769,10.498,9.922,14.649c4.153,4.152,9.035,7.461,14.651,9.918
				c5.614,2.461,11.574,3.693,17.883,3.693c0,0,14.488-0.06,29.742-0.119c16.958-0.07,53.091,0.119,53.091,0.119l0.229-193.778
				c0-3.843,0.729-7.419,2.193-10.729c1.459-3.307,3.458-6.229,5.998-8.766c2.539-2.538,5.457-4.535,8.77-5.998
				c3.307-1.46,6.883-2.192,10.729-2.192c3.842,0,7.42,0.729,10.729,2.192c3.304,1.463,6.228,3.46,8.767,5.998
				c2.537,2.538,4.533,5.459,5.998,8.766c1.463,3.309,2.191,6.884,2.191,10.729v161.885c0,0.521-10.502,1.503-11.102,1.503
				l11.102,11.126h18.46V75.988c0-3.844,0.728-7.419,2.19-10.728c1.461-3.307,3.461-6.229,6-8.767
				c2.537-2.538,5.455-4.535,8.766-5.997c3.309-1.46,6.884-2.192,10.73-2.192c3.844,0,7.42,0.73,10.729,2.192
				c3.304,1.462,6.229,3.459,8.77,5.997c2.535,2.539,4.533,5.46,5.996,8.767c1.461,3.309,2.193,6.884,2.193,10.728v179.397
				c0,1.09-9.844,3.262-11.104,3.262l11.104,11.121H288V75.988c0-6.304-1.232-12.262-3.693-17.877
				c-2.461-5.614-5.77-10.496-9.923-14.648c-4.153-4.152-9.036-7.458-14.647-9.92c-5.618-2.459-11.577-3.691-17.883-3.691
				c-7.539,0-14.539,1.693-20.996,5.073c-6.463,3.386-11.768,7.844-15.922,13.381c-4.306-5.538-9.653-9.995-16.037-13.381
				c-6.385-3.38-13.346-5.073-20.881-5.073c-6.309,0-12.27,1.232-17.883,3.691c-5.617,2.462-10.498,5.767-14.651,9.92
				c-4.153,4.153-7.462,9.035-9.921,14.648c-2.463,5.615-3.692,11.573-3.692,17.877v175.077l-64.604,0.244
				c-3.849,0-7.424-0.728-10.73-2.189c-3.309-1.461-6.23-3.46-8.769-5.998c-2.538-2.537-4.54-5.458-5.998-8.768
				c-1.465-3.306-2.192-6.881-2.192-10.729v-27.682L29.581,149.807z"/>
			<path id="Shape_1_" fill="#193755" d="M18.461,138.688c0-3.842,0.728-7.417,2.193-10.728c1.46-3.306,3.459-6.229,5.998-8.767
				s5.459-4.535,8.769-5.997c3.307-1.46,6.883-2.192,10.73-2.192c3.841,0,7.419,0.732,10.729,2.192
				c3.306,1.464,6.23,3.461,8.769,5.997c2.539,2.538,4.536,5.461,5.998,8.767c1.461,3.309,2.193,6.886,2.193,10.728v18.457
				c0,3.844-0.732,7.422-2.193,10.728c-1.464,3.31-3.459,6.228-5.998,8.764c-2.538,2.54-5.461,4.539-8.769,6.003
				c-3.309,1.463-6.888,2.189-10.729,2.189h-8.02l-0.086,18.455h8.106c6.305,0,12.262-1.227,17.88-3.689
				c5.615-2.462,10.498-5.769,14.651-9.92c4.153-4.154,7.458-9.031,9.922-14.648c2.459-5.609,3.691-11.567,3.691-17.877v-18.459
				c0-6.305-1.232-12.26-3.691-17.876c-2.46-5.613-5.769-10.498-9.922-14.648c-4.153-4.152-9.037-7.457-14.651-9.92
				c-5.618-2.458-11.577-3.691-17.88-3.691c-6.311,0-12.271,1.232-17.884,3.691c-5.617,2.463-10.5,5.768-14.651,9.92
				c-4.153,4.153-7.463,9.036-9.921,14.648c-2.463,5.617-3.693,11.573-3.693,17.876v73.818c0,6.311,1.23,12.268,3.692,17.879
				c2.458,5.617,5.768,10.497,9.921,14.648c4.154,4.154,9.035,7.463,14.651,9.92c5.613,2.46,11.573,3.693,17.884,3.693
				c0,0,14.487-0.061,29.741-0.121c16.958-0.069,53.09,0.121,53.09,0.121l0.229-193.779c0-3.843,0.728-7.418,2.192-10.728
				c1.461-3.306,3.46-6.229,5.998-8.767c2.54-2.538,5.458-4.535,8.769-5.997c3.306-1.46,6.884-2.192,10.729-2.192
				c3.84,0,7.418,0.73,10.729,2.192c3.307,1.462,6.229,3.459,8.768,5.997s4.535,5.46,5.998,8.767
				c1.463,3.309,2.192,6.884,2.192,10.728v174.515h18.458V64.868c0-3.844,0.729-7.418,2.193-10.727
				c1.459-3.307,3.459-6.229,5.998-8.767s5.457-4.536,8.767-5.997c3.308-1.46,6.883-2.192,10.729-2.192
				c3.845,0,7.42,0.73,10.729,2.192c3.307,1.461,6.229,3.459,8.77,5.997c2.537,2.538,4.535,5.46,5.998,8.767
				c1.461,3.309,2.192,6.883,2.192,10.727v193.778h18.461V64.868c0-6.304-1.231-12.262-3.692-17.877
				c-2.461-5.613-5.771-10.495-9.922-14.648c-4.154-4.153-9.037-7.458-14.648-9.92c-5.619-2.458-11.578-3.691-17.883-3.691
				c-7.539,0-14.539,1.694-20.996,5.074c-6.463,3.386-11.768,7.844-15.924,13.382c-4.306-5.538-9.652-9.996-16.035-13.382
				c-6.385-3.379-13.348-5.074-20.881-5.074c-6.311,0-12.27,1.233-17.882,3.691c-5.618,2.463-10.498,5.768-14.651,9.92
				c-4.154,4.153-7.463,9.035-9.922,14.648c-2.462,5.615-3.691,11.573-3.691,17.877v175.075l-64.604,0.246
				c-3.848,0-7.424-0.729-10.729-2.192c-3.31-1.461-6.23-3.459-8.769-5.997s-4.541-5.459-5.999-8.768
				c-1.464-3.303-2.193-6.881-2.193-10.729v-27.681L18.461,138.688z"/>
		</g>
	</g>
</g>
</svg>
